<mxfile host="app.diagrams.net" modified="2021-02-24T01:53:16.979Z" agent="5.0 (Windows NT 10.0; Win64; x64) AppleWebKit/537.36 (KHTML, like Gecko) Chrome/87.0.4280.67 Safari/537.36 Edg/87.0.664.55" etag="IXYx0_p2hBdH2UVmnoro" version="14.4.2" type="github">
  <diagram name="Page-1" id="c7558073-3199-34d8-9f00-42111426c3f3">
    <mxGraphModel dx="782" dy="446" grid="1" gridSize="10" guides="1" tooltips="1" connect="1" arrows="1" fold="1" page="1" pageScale="1" pageWidth="826" pageHeight="1169" background="#ffffff" math="0" shadow="0">
      <root>
        <mxCell id="0" />
        <mxCell id="1" parent="0" />
        <mxCell id="35Kzmi3-enwi3v_LZubi-99" value="" style="rounded=1;whiteSpace=wrap;html=1;dashed=1;" vertex="1" parent="1">
          <mxGeometry x="30" y="450" width="630" height="170" as="geometry" />
        </mxCell>
        <mxCell id="35Kzmi3-enwi3v_LZubi-96" value="" style="edgeStyle=orthogonalEdgeStyle;rounded=0;orthogonalLoop=1;jettySize=auto;html=1;" edge="1" parent="1" source="10" target="11">
          <mxGeometry relative="1" as="geometry" />
        </mxCell>
        <mxCell id="35Kzmi3-enwi3v_LZubi-97" value="data outflow" style="edgeLabel;html=1;align=center;verticalAlign=middle;resizable=0;points=[];" vertex="1" connectable="0" parent="35Kzmi3-enwi3v_LZubi-96">
          <mxGeometry x="-0.3079" y="1" relative="1" as="geometry">
            <mxPoint x="14.33" y="1" as="offset" />
          </mxGeometry>
        </mxCell>
        <mxCell id="10" value="&lt;p style=&quot;margin: 0px ; margin-top: 4px ; text-align: center ; text-decoration: underline&quot;&gt;&lt;strong&gt;Project1&lt;/strong&gt;&lt;/p&gt;&lt;hr&gt;&lt;p style=&quot;margin: 0px ; margin-left: 8px&quot;&gt;china_data_integration_dev&lt;/p&gt;&lt;p style=&quot;margin: 0px ; margin-left: 8px&quot;&gt;User: Dong_Huang&lt;/p&gt;&lt;p style=&quot;margin: 0px ; margin-left: 8px&quot;&gt;Package name: package_test&lt;/p&gt;&lt;p style=&quot;margin: 0px ; margin-left: 8px&quot;&gt;Object list: table_test_labelsecurity&lt;/p&gt;" style="verticalAlign=middle;align=center;overflow=fill;fontSize=12;fontFamily=Helvetica;html=1;rounded=1;fontStyle=1;strokeWidth=3;fillColor=#E6FFCC" parent="1" vertex="1">
          <mxGeometry x="50" y="510" width="236.5" height="90" as="geometry" />
        </mxCell>
        <mxCell id="11" value="&lt;p style=&quot;margin: 0px ; margin-top: 4px ; text-align: center ; text-decoration: underline&quot;&gt;&lt;strong&gt;Project2&lt;/strong&gt;&lt;/p&gt;&lt;hr&gt;&lt;p style=&quot;margin: 0px ; margin-left: 8px&quot;&gt;demo_workplace&lt;/p&gt;&lt;p style=&quot;margin: 0px ; margin-left: 8px&quot;&gt;User: Dong_Huang_1&lt;/p&gt;" style="verticalAlign=middle;align=center;overflow=fill;fontSize=12;fontFamily=Helvetica;html=1;rounded=1;fontStyle=1;strokeWidth=3;fillColor=#E6FFCC" parent="1" vertex="1">
          <mxGeometry x="400" y="510" width="236.5" height="90" as="geometry" />
        </mxCell>
        <mxCell id="35Kzmi3-enwi3v_LZubi-98" value="Packaged-based resource sharing" style="text;html=1;align=center;verticalAlign=middle;resizable=0;points=[];autosize=1;" vertex="1" parent="1">
          <mxGeometry x="250" y="460" width="200" height="20" as="geometry" />
        </mxCell>
      </root>
    </mxGraphModel>
  </diagram>
</mxfile>
